<svg width="135" height="28" viewBox="0 0 135 28" fill="none" xmlns="http://www.w3.org/2000/svg">
<path d="M18.4062 5.71875C18.1771 5.80208 18.0208 5.91667 17.9375 6.0625C17.875 6.1875 17.8021 6.35417 17.7188 6.5625C17.6771 6.64583 17.5938 6.84375 17.4688 7.15625C17.3438 7.44792 17.1979 7.80208 17.0312 8.21875C16.8646 8.63542 16.6771 9.07292 16.4688 9.53125C16.2812 9.98958 16.1042 10.4271 15.9375 10.8438C15.7708 11.2604 15.625 11.625 15.5 11.9375C15.375 12.25 15.2917 12.4583 15.25 12.5625C15.1042 12.8958 14.9167 13.2812 14.6875 13.7188C14.4792 14.1562 14.2188 14.5729 13.9062 14.9688C13.6146 15.3646 13.2812 15.6979 12.9062 15.9688C12.5521 16.2396 12.1562 16.375 11.7188 16.375C11.0312 16.375 10.4792 16.1146 10.0625 15.5938C9.64583 15.0521 9.32292 14.3646 9.09375 13.5312C8.88542 12.6771 8.73958 11.7292 8.65625 10.6875C8.57292 9.625 8.5 8.59375 8.4375 7.59375C8.39583 6.59375 8.34375 5.65625 8.28125 4.78125C8.21875 3.90625 8.09375 3.21875 7.90625 2.71875C7.86458 2.71875 7.83333 2.71875 7.8125 2.71875C7.79167 2.71875 7.77083 2.71875 7.75 2.71875C7.72917 2.71875 7.71875 2.71875 7.71875 2.71875C7.71875 2.71875 7.70833 2.71875 7.6875 2.71875H7.625C7.41667 2.84375 7.21875 3.03125 7.03125 3.28125C6.86458 3.53125 6.70833 3.80208 6.5625 4.09375C6.41667 4.36458 6.29167 4.625 6.1875 4.875C6.10417 5.125 6.04167 5.32292 6 5.46875L2.4375 16.9062C2.41667 16.9688 2.38542 17.0521 2.34375 17.1562C2.30208 17.2604 2.23958 17.3646 2.15625 17.4688C2.09375 17.5521 2.01042 17.625 1.90625 17.6875C1.82292 17.75 1.72917 17.7604 1.625 17.7188C1.5625 17.7188 1.47917 17.6771 1.375 17.5938C1.29167 17.4896 1.20833 17.3854 1.125 17.2812C1.04167 17.1562 0.96875 17.0417 0.90625 16.9375C0.84375 16.8125 0.802083 16.7188 0.78125 16.6562C0.46875 14.5521 0.291667 12.4062 0.25 10.2188C0.208333 8.03125 0.208333 5.90625 0.25 3.84375C0.229167 3.80208 0.177083 3.70833 0.09375 3.5625C0.03125 3.41667 0 3.32292 0 3.28125C0 3.13542 0.0416667 2.98958 0.125 2.84375C0.229167 2.67708 0.34375 2.52083 0.46875 2.375C0.614583 2.22917 0.760417 2.11458 0.90625 2.03125C1.07292 1.92708 1.21875 1.875 1.34375 1.875C1.55208 1.875 1.69792 1.9375 1.78125 2.0625C1.86458 2.16667 1.90625 2.32292 1.90625 2.53125C1.90625 3.65625 1.85417 4.77083 1.75 5.875C1.64583 6.97917 1.59375 8.10417 1.59375 9.25C1.59375 9.39583 1.59375 9.60417 1.59375 9.875C1.59375 10.1458 1.59375 10.4167 1.59375 10.6875C1.61458 10.9375 1.625 11.1667 1.625 11.375C1.625 11.5833 1.625 11.6979 1.625 11.7188L1.90625 12.8438C1.92708 12.8021 1.96875 12.75 2.03125 12.6875C2.11458 12.625 2.16667 12.5833 2.1875 12.5625C2.22917 12.4792 2.30208 12.3229 2.40625 12.0938C2.51042 11.8646 2.61458 11.625 2.71875 11.375C2.84375 11.1042 2.95833 10.8542 3.0625 10.625C3.16667 10.375 3.22917 10.1979 3.25 10.0938C3.29167 9.98958 3.36458 9.80208 3.46875 9.53125C3.57292 9.23958 3.69792 8.89583 3.84375 8.5C3.98958 8.08333 4.14583 7.65625 4.3125 7.21875C4.5 6.78125 4.66667 6.36458 4.8125 5.96875C4.95833 5.57292 5.08333 5.22917 5.1875 4.9375C5.3125 4.64583 5.39583 4.44792 5.4375 4.34375C5.52083 4.17708 5.64583 3.88542 5.8125 3.46875C6 3.03125 6.21875 2.60417 6.46875 2.1875C6.73958 1.75 7.02083 1.36458 7.3125 1.03125C7.625 0.697917 7.94792 0.53125 8.28125 0.53125C8.59375 0.53125 8.83333 0.739583 9 1.15625C9.16667 1.57292 9.29167 2.125 9.375 2.8125C9.47917 3.47917 9.55208 4.25 9.59375 5.125C9.63542 5.97917 9.66667 6.86458 9.6875 7.78125C9.72917 8.69792 9.78125 9.59375 9.84375 10.4688C9.92708 11.3229 10.0417 12.0938 10.1875 12.7812C10.3333 13.4479 10.5312 13.9896 10.7812 14.4062C11.0521 14.8229 11.4062 15.0312 11.8438 15.0312C11.9688 15.0312 12.1042 14.9688 12.25 14.8438C12.4167 14.6979 12.5729 14.5312 12.7188 14.3438C12.8646 14.1562 12.9896 13.9688 13.0938 13.7812C13.2188 13.5938 13.3021 13.4479 13.3438 13.3438C13.4896 13.0729 13.6979 12.6458 13.9688 12.0625C14.2396 11.4792 14.5417 10.8229 14.875 10.0938C15.2292 9.36458 15.5938 8.59375 15.9688 7.78125C16.3438 6.96875 16.6979 6.19792 17.0312 5.46875C17.3646 4.71875 17.6667 4.05208 17.9375 3.46875C18.2083 2.88542 18.4062 2.44792 18.5312 2.15625C18.6354 1.90625 18.7708 1.5625 18.9375 1.125C19.125 0.6875 19.2604 0.3125 19.3438 0C19.5938 0.0416667 19.8438 0.114583 20.0938 0.21875C20.3438 0.322917 20.4688 0.510417 20.4688 0.78125C20.4688 0.822917 20.4583 0.885417 20.4375 0.96875C20.4375 1.03125 20.4375 1.07292 20.4375 1.09375C20.1458 2.80208 19.9271 4.46875 19.7812 6.09375C19.6562 7.69792 19.5938 9.35417 19.5938 11.0625C19.5938 11.2083 19.5938 11.4688 19.5938 11.8438C19.5938 12.1979 19.5938 12.5938 19.5938 13.0312C19.6146 13.4479 19.625 13.8438 19.625 14.2188C19.625 14.5729 19.625 14.8333 19.625 15C19.7292 15.8542 20.0312 16.6354 20.5312 17.3438C21.0312 18.0521 21.5417 18.7188 22.0625 19.3438V20.0625C21.875 20.0625 21.6458 19.9688 21.375 19.7812C21.1042 19.5729 20.8333 19.3125 20.5625 19C20.2917 18.6875 20.0208 18.3333 19.75 17.9375C19.5 17.5417 19.2708 17.1562 19.0625 16.7812C18.875 16.4062 18.7188 16.0625 18.5938 15.75C18.4688 15.4375 18.4062 15.1875 18.4062 15V5.71875Z" fill="#9E4523"/>
<path d="M25.8125 15.5312C25.8125 14.9896 25.8438 14.4583 25.9062 13.9375C25.9688 13.3958 26.0312 12.8646 26.0938 12.3438C26.1771 11.8021 26.25 11.2708 26.3125 10.75C26.375 10.2083 26.4062 9.65625 26.4062 9.09375C26.4062 8.96875 26.375 8.83333 26.3125 8.6875C26.2708 8.52083 26.1458 8.4375 25.9375 8.4375C25.6667 8.4375 25.4896 8.45833 25.4062 8.5C25.3229 8.54167 25.2604 8.59375 25.2188 8.65625C25.1979 8.71875 25.1458 8.79167 25.0625 8.875C25 8.95833 24.8438 9.04167 24.5938 9.125H24.4375C24 9.125 23.7812 8.89583 23.7812 8.4375C23.7812 8.3125 23.9167 8.11458 24.1875 7.84375C24.4792 7.57292 24.8125 7.32292 25.1875 7.09375C25.5625 6.84375 25.9167 6.63542 26.25 6.46875C26.5833 6.28125 26.8021 6.21875 26.9062 6.28125C26.9479 6.28125 27.0104 6.32292 27.0938 6.40625C27.1771 6.46875 27.2604 6.55208 27.3438 6.65625C27.4271 6.73958 27.5 6.82292 27.5625 6.90625C27.6458 6.98958 27.6979 7.05208 27.7188 7.09375C27.7188 7.13542 27.7188 7.21875 27.7188 7.34375C27.7188 7.46875 27.7188 7.60417 27.7188 7.75C27.7396 7.89583 27.75 8.04167 27.75 8.1875C27.75 8.3125 27.75 8.40625 27.75 8.46875C27.75 9.07292 27.7083 9.67708 27.625 10.2812C27.5417 10.8646 27.4375 11.4583 27.3125 12.0625C27.2083 12.6667 27.1146 13.2708 27.0312 13.875C26.9479 14.4792 26.9062 15.0833 26.9062 15.6875C26.9062 15.7917 26.9167 16 26.9375 16.3125C26.9583 16.625 27 16.9479 27.0625 17.2812C27.1458 17.6146 27.2604 17.9167 27.4062 18.1875C27.5521 18.4375 27.75 18.5625 28 18.5625C28.5 18.5625 28.875 18.5 29.125 18.375C29.375 18.2292 29.5938 18.0729 29.7812 17.9062C29.9688 17.7396 30.1667 17.5938 30.375 17.4688C30.6042 17.3229 30.9167 17.25 31.3125 17.25C31.3125 18.125 30.9896 18.7917 30.3438 19.25C29.6979 19.7083 28.875 19.9375 27.875 19.9375C27.3542 19.9375 26.9583 19.7708 26.6875 19.4375C26.4167 19.1042 26.2083 18.7083 26.0625 18.25C25.9375 17.7708 25.8646 17.2812 25.8438 16.7812C25.8229 16.2812 25.8125 15.8646 25.8125 15.5312ZM26.125 2.46875C26.125 2.23958 26.1562 2.0625 26.2188 1.9375C26.3021 1.8125 26.4792 1.75 26.75 1.75C26.9375 1.75 27.0625 1.82292 27.125 1.96875C27.2083 2.09375 27.25 2.26042 27.25 2.46875C27.25 2.65625 27.2083 2.82292 27.125 2.96875C27.0625 3.09375 26.9375 3.15625 26.75 3.15625C26.4792 3.15625 26.3021 3.10417 26.2188 3C26.1562 2.875 26.125 2.69792 26.125 2.46875Z" fill="#9E4523"/>
<path d="M30.2812 17.5938C30.2812 17.4688 30.4167 17.3646 30.6875 17.2812C30.9583 17.1979 31.2604 17.0938 31.5938 16.9688C31.9479 16.8438 32.2917 16.6979 32.625 16.5312C32.9792 16.3438 33.2188 16.1146 33.3438 15.8438C33.3021 14.8438 33.3125 13.8958 33.375 13C33.4375 12.1042 33.5417 11.2188 33.6875 10.3438C33.8333 9.46875 34.0104 8.59375 34.2188 7.71875C34.4479 6.82292 34.6979 5.88542 34.9688 4.90625C34.9271 4.69792 34.9688 4.375 35.0938 3.9375C35.2396 3.5 35.4271 3.07292 35.6562 2.65625C35.8854 2.23958 36.1354 1.875 36.4062 1.5625C36.6979 1.22917 36.9583 1.0625 37.1875 1.0625C37.4375 1.0625 37.6146 1.19792 37.7188 1.46875C37.8438 1.73958 37.9271 2.05208 37.9688 2.40625C38.0104 2.76042 38.0208 3.125 38 3.5C37.9792 3.85417 37.9688 4.125 37.9688 4.3125C37.9688 5.375 37.9062 6.40625 37.7812 7.40625C37.6562 8.38542 37.4583 9.34375 37.1875 10.2812C36.9375 11.2188 36.625 12.1458 36.25 13.0625C35.875 13.9792 35.4479 14.9062 34.9688 15.8438C34.9688 15.8438 34.9583 15.875 34.9375 15.9375C34.9375 16 34.9375 16.0521 34.9375 16.0938C34.9583 16.8438 35.1771 17.375 35.5938 17.6875C36.0104 17.9792 36.5 18.1458 37.0625 18.1875C37.6458 18.2083 38.2396 18.1354 38.8438 17.9688C39.4688 17.8021 39.9792 17.6354 40.375 17.4688L40.6562 17.7188C40.5521 17.9062 40.3958 18.1042 40.1875 18.3125C40 18.5 39.7917 18.6771 39.5625 18.8438C39.3333 18.9896 39.1042 19.1146 38.875 19.2188C38.6667 19.3021 38.5 19.3438 38.375 19.3438C37.8333 19.3438 37.3646 19.3229 36.9688 19.2812C36.5729 19.2396 36.2083 19.1562 35.875 19.0312C35.5417 18.9062 35.2188 18.7188 34.9062 18.4688C34.5938 18.2188 34.25 17.8854 33.875 17.4688H33.625C33.4375 17.6354 33.2604 17.7708 33.0938 17.875C32.9479 17.9583 32.7708 18.0208 32.5625 18.0625C32.3542 18.1042 32.1146 18.1354 31.8438 18.1562C31.5938 18.1562 31.3021 18.1562 30.9688 18.1562C30.7396 18.1562 30.5729 18.125 30.4688 18.0625C30.3438 17.9792 30.2812 17.8229 30.2812 17.5938ZM36.875 3.84375C36.4583 4.40625 36.1042 5.04167 35.8125 5.75C35.5417 6.45833 35.3229 7.1875 35.1562 7.9375C34.9896 8.6875 34.8646 9.44792 34.7812 10.2188C34.6979 10.9896 34.6562 11.7292 34.6562 12.4375C34.6562 12.4792 34.6562 12.5729 34.6562 12.7188C34.6771 12.8646 34.6875 13.0208 34.6875 13.1875C34.6875 13.3333 34.6875 13.4792 34.6875 13.625C34.7083 13.7708 34.7188 13.8646 34.7188 13.9062C34.7396 13.8854 34.7812 13.8438 34.8438 13.7812C34.9062 13.7188 34.9479 13.6771 34.9688 13.6562V13.3438C35.2812 12.6562 35.5521 11.9896 35.7812 11.3438C36.0312 10.6979 36.2396 10.0521 36.4062 9.40625C36.5729 8.73958 36.6979 8.0625 36.7812 7.375C36.8646 6.6875 36.9062 5.94792 36.9062 5.15625C36.9062 5.11458 36.9062 5.03125 36.9062 4.90625C36.9062 4.76042 36.9062 4.625 36.9062 4.5C36.9062 4.35417 36.8958 4.21875 36.875 4.09375C36.875 3.96875 36.875 3.88542 36.875 3.84375Z" fill="#9E4523"/>
<path d="M40.2812 16C40.1354 16.0833 40.0208 16.1042 39.9375 16.0625C39.8542 16.0208 39.7917 15.9583 39.75 15.875C39.7292 15.7917 39.7083 15.6979 39.6875 15.5938C39.6875 15.4688 39.6875 15.3854 39.6875 15.3438C39.6875 14.9271 39.7396 14.6771 39.8438 14.5938C39.9479 14.4896 40.0833 14.4271 40.25 14.4062C40.4167 14.3646 40.5938 14.3125 40.7812 14.25C40.9688 14.1875 41.1458 13.9896 41.3125 13.6562C41.5625 13.1354 41.7812 12.5938 41.9688 12.0312C42.1771 11.4479 42.4271 10.9062 42.7188 10.4062C43.0104 9.90625 43.375 9.5 43.8125 9.1875C44.2708 8.875 44.8958 8.71875 45.6875 8.71875C45.8125 8.71875 45.9479 8.72917 46.0938 8.75C46.2604 8.77083 46.4062 8.8125 46.5312 8.875C46.6771 8.91667 46.7917 9 46.875 9.125C46.9792 9.22917 47.0312 9.375 47.0312 9.5625C47.0312 10 46.9167 10.3958 46.6875 10.75C46.4792 11.0833 46.2083 11.3958 45.875 11.6875C45.5625 11.9583 45.2188 12.2188 44.8438 12.4688C44.4688 12.7188 44.125 12.9583 43.8125 13.1875C43.5 13.4167 43.2292 13.6562 43 13.9062C42.7917 14.1562 42.6875 14.4271 42.6875 14.7188V17.7188C42.6875 17.9479 42.7708 18.1354 42.9375 18.2812C43.125 18.4062 43.3333 18.5104 43.5625 18.5938C43.7917 18.6771 44.0312 18.7396 44.2812 18.7812C44.5312 18.8229 44.7188 18.8438 44.8438 18.8438C45.3438 18.8438 45.8438 18.7604 46.3438 18.5938C46.8438 18.4062 47.3229 18.1771 47.7812 17.9062C48.2604 17.6354 48.7083 17.3438 49.125 17.0312C49.5417 16.6979 49.9375 16.3854 50.3125 16.0938C50.4375 15.9896 50.5417 15.8854 50.625 15.7812C50.7292 15.6562 50.8229 15.5417 50.9062 15.4375C51.0104 15.3333 51.1146 15.25 51.2188 15.1875C51.3438 15.1042 51.5 15.0417 51.6875 15C51.6875 15.0208 51.6875 15.0625 51.6875 15.125C51.6875 15.1875 51.6875 15.2396 51.6875 15.2812C51.6875 15.4479 51.6667 15.5938 51.625 15.7188C51.6042 15.8438 51.5312 15.9688 51.4062 16.0938C50.9479 16.6146 50.4583 17.1042 49.9375 17.5625C49.4167 18.0208 48.8646 18.4271 48.2812 18.7812C47.6979 19.1354 47.0833 19.4167 46.4375 19.625C45.7917 19.8333 45.1042 19.9375 44.375 19.9375C43.6458 19.9375 43.0833 19.8333 42.6875 19.625C42.2917 19.4167 41.9792 19.1146 41.75 18.7188C41.5417 18.3229 41.3958 17.8542 41.3125 17.3125C41.2292 16.7708 41.1354 16.1875 41.0312 15.5625L40.2812 16ZM44.3125 11.1562C44.3125 11.1146 44.2708 11.125 44.1875 11.1875C44.125 11.2292 44.0417 11.2917 43.9375 11.375C43.8542 11.4583 43.7917 11.5417 43.75 11.625C43.7083 11.6875 43.7083 11.7188 43.75 11.7188C43.8542 11.7396 43.9792 11.6771 44.125 11.5312C44.2708 11.3854 44.3333 11.2604 44.3125 11.1562Z" fill="#9E4523"/>
<path d="M53.0938 17.7188C53.1354 17.5521 53.1979 17.2812 53.2812 16.9062C53.3646 16.5104 53.4479 16.0729 53.5312 15.5938C53.6354 15.1146 53.7292 14.6042 53.8125 14.0625C53.9167 13.5208 54.0104 13.0104 54.0938 12.5312C54.1979 12.0521 54.2812 11.6146 54.3438 11.2188C54.4062 10.8229 54.4479 10.5312 54.4688 10.3438C54.4896 10.2604 54.4896 10.1354 54.4688 9.96875C54.4479 9.80208 54.4271 9.61458 54.4062 9.40625C54.3854 9.19792 54.3646 9.01042 54.3438 8.84375C54.3229 8.67708 54.3125 8.55208 54.3125 8.46875C54.25 8.46875 54.1458 8.44792 54 8.40625C53.8542 8.36458 53.6979 8.33333 53.5312 8.3125C53.3854 8.27083 53.25 8.23958 53.125 8.21875C53 8.17708 52.9062 8.15625 52.8438 8.15625C52.3438 8.34375 51.9688 8.58333 51.7188 8.875C51.4896 9.14583 51.2708 9.41667 51.0625 9.6875C50.875 9.95833 50.6458 10.1979 50.375 10.4062C50.1042 10.5938 49.7083 10.6875 49.1875 10.6875C49 10.6875 48.8646 10.6146 48.7812 10.4688C48.6979 10.3229 48.6562 10.1562 48.6562 9.96875V9.84375C49.1146 9.32292 49.5521 8.875 49.9688 8.5C50.3646 8.125 50.7917 7.8125 51.25 7.5625C51.7083 7.29167 52.2083 7.09375 52.75 6.96875C53.2917 6.84375 53.9167 6.78125 54.625 6.78125C54.9375 6.78125 55.1667 6.84375 55.3125 6.96875C55.4792 7.07292 55.6042 7.21875 55.6875 7.40625C55.7708 7.57292 55.8125 7.77083 55.8125 8C55.8333 8.22917 55.8438 8.47917 55.8438 8.75C55.8438 9.3125 55.7812 9.875 55.6562 10.4375C55.5521 10.9792 55.4271 11.5312 55.2812 12.0938C55.1562 12.6354 55.0312 13.1875 54.9062 13.75C54.7812 14.2917 54.7188 14.8542 54.7188 15.4375V15.5625C54.7812 15.3958 54.9167 15.125 55.125 14.75C55.3333 14.3542 55.5521 13.9375 55.7812 13.5C56.0104 13.0625 56.2292 12.6562 56.4375 12.2812C56.6667 11.8854 56.8229 11.6146 56.9062 11.4688C56.9271 11.4479 57 11.3646 57.125 11.2188C57.25 11.0521 57.3958 10.8646 57.5625 10.6562C57.75 10.4479 57.9271 10.25 58.0938 10.0625C58.2812 9.85417 58.4375 9.6875 58.5625 9.5625C58.6875 9.39583 58.8333 9.21875 59 9.03125C59.1875 8.84375 59.375 8.66667 59.5625 8.5C59.7708 8.33333 59.9792 8.19792 60.1875 8.09375C60.4167 7.96875 60.6458 7.90625 60.875 7.90625C61.0625 7.90625 61.1979 7.97917 61.2812 8.125C61.3854 8.27083 61.4583 8.44792 61.5 8.65625C61.5417 8.86458 61.5625 9.08333 61.5625 9.3125C61.5625 9.52083 61.5625 9.69792 61.5625 9.84375C61.5625 10.4688 61.4896 11.0938 61.3438 11.7188C61.1979 12.3438 61.0417 12.9688 60.875 13.5938C60.7083 14.1979 60.5417 14.8125 60.375 15.4375C60.2292 16.0625 60.1562 16.6875 60.1562 17.3125C60.1562 17.5833 60.1979 17.8125 60.2812 18C60.3646 18.1875 60.5521 18.2812 60.8438 18.2812C61.2188 18.2812 61.5625 18.1771 61.875 17.9688C62.1875 17.7604 62.4792 17.5417 62.75 17.3125C63.0417 17.0625 63.3229 16.8333 63.5938 16.625C63.8854 16.4167 64.2083 16.3125 64.5625 16.3125V16.9062C64.5625 16.9271 64.5104 16.9896 64.4062 17.0938C64.3021 17.1979 64.1771 17.3229 64.0312 17.4688C63.8854 17.6146 63.7292 17.7604 63.5625 17.9062C63.4167 18.0521 63.2917 18.1771 63.1875 18.2812C63.0208 18.4271 62.8333 18.5833 62.625 18.75C62.4167 18.9167 62.1979 19.0729 61.9688 19.2188C61.7604 19.3438 61.5312 19.4583 61.2812 19.5625C61.0312 19.6458 60.7917 19.6875 60.5625 19.6875C60.25 19.6875 59.9896 19.6042 59.7812 19.4375C59.5938 19.25 59.4479 19.0312 59.3438 18.7812C59.2396 18.5104 59.1667 18.2292 59.125 17.9375C59.0833 17.6458 59.0625 17.3854 59.0625 17.1562C59.0625 16.5312 59.1146 15.9167 59.2188 15.3125C59.3438 14.6875 59.4688 14.0833 59.5938 13.5C59.7188 12.8958 59.8333 12.2917 59.9375 11.6875C60.0417 11.0833 60.0938 10.4688 60.0938 9.84375H59.9062C59.8854 9.84375 59.8125 9.90625 59.6875 10.0312C59.5625 10.1562 59.4062 10.3021 59.2188 10.4688C59.0521 10.6354 58.8854 10.8125 58.7188 11C58.5521 11.1875 58.4062 11.3438 58.2812 11.4688C58.1771 11.5938 58.0625 11.75 57.9375 11.9375C57.8125 12.1042 57.6875 12.2917 57.5625 12.5C57.4375 12.7083 57.3125 12.9167 57.1875 13.125C57.0833 13.3125 56.9896 13.4896 56.9062 13.6562C56.8438 13.8021 56.7396 14.0208 56.5938 14.3125C56.4479 14.6042 56.2812 14.9375 56.0938 15.3125C55.9271 15.6875 55.7396 16.0833 55.5312 16.5C55.3438 16.9167 55.1562 17.3125 54.9688 17.6875C54.8021 18.0625 54.6458 18.3958 54.5 18.6875C54.3542 18.9792 54.25 19.1979 54.1875 19.3438C54.1667 19.4271 54.0833 19.5417 53.9375 19.6875C53.7917 19.8125 53.6979 19.8854 53.6562 19.9062C53.6146 19.9271 53.5938 19.9375 53.5938 19.9375H53.5H53.4375C53.4167 19.9375 53.3958 19.9271 53.375 19.9062C53.3333 19.8854 53.2708 19.8438 53.1875 19.7812C53.125 19.7188 53.0938 19.6771 53.0938 19.6562V17.7188Z" fill="#9E4523"/>
<path d="M63.9375 16C63.7917 16.0833 63.6771 16.1042 63.5938 16.0625C63.5104 16.0208 63.4479 15.9583 63.4062 15.875C63.3854 15.7917 63.3646 15.6979 63.3438 15.5938C63.3438 15.4688 63.3438 15.3854 63.3438 15.3438C63.3438 14.9271 63.3958 14.6771 63.5 14.5938C63.6042 14.4896 63.7396 14.4271 63.9062 14.4062C64.0729 14.3646 64.25 14.3125 64.4375 14.25C64.625 14.1875 64.8021 13.9896 64.9688 13.6562C65.2188 13.1354 65.4375 12.5938 65.625 12.0312C65.8333 11.4479 66.0833 10.9062 66.375 10.4062C66.6667 9.90625 67.0312 9.5 67.4688 9.1875C67.9271 8.875 68.5521 8.71875 69.3438 8.71875C69.4688 8.71875 69.6042 8.72917 69.75 8.75C69.9167 8.77083 70.0625 8.8125 70.1875 8.875C70.3333 8.91667 70.4479 9 70.5312 9.125C70.6354 9.22917 70.6875 9.375 70.6875 9.5625C70.6875 10 70.5729 10.3958 70.3438 10.75C70.1354 11.0833 69.8646 11.3958 69.5312 11.6875C69.2188 11.9583 68.875 12.2188 68.5 12.4688C68.125 12.7188 67.7812 12.9583 67.4688 13.1875C67.1562 13.4167 66.8854 13.6562 66.6562 13.9062C66.4479 14.1562 66.3438 14.4271 66.3438 14.7188V17.7188C66.3438 17.9479 66.4271 18.1354 66.5938 18.2812C66.7812 18.4062 66.9896 18.5104 67.2188 18.5938C67.4479 18.6771 67.6875 18.7396 67.9375 18.7812C68.1875 18.8229 68.375 18.8438 68.5 18.8438C69 18.8438 69.5 18.7604 70 18.5938C70.5 18.4062 70.9792 18.1771 71.4375 17.9062C71.9167 17.6354 72.3646 17.3438 72.7812 17.0312C73.1979 16.6979 73.5938 16.3854 73.9688 16.0938C74.0938 15.9896 74.1979 15.8854 74.2812 15.7812C74.3854 15.6562 74.4792 15.5417 74.5625 15.4375C74.6667 15.3333 74.7708 15.25 74.875 15.1875C75 15.1042 75.1562 15.0417 75.3438 15C75.3438 15.0208 75.3438 15.0625 75.3438 15.125C75.3438 15.1875 75.3438 15.2396 75.3438 15.2812C75.3438 15.4479 75.3229 15.5938 75.2812 15.7188C75.2604 15.8438 75.1875 15.9688 75.0625 16.0938C74.6042 16.6146 74.1146 17.1042 73.5938 17.5625C73.0729 18.0208 72.5208 18.4271 71.9375 18.7812C71.3542 19.1354 70.7396 19.4167 70.0938 19.625C69.4479 19.8333 68.7604 19.9375 68.0312 19.9375C67.3021 19.9375 66.7396 19.8333 66.3438 19.625C65.9479 19.4167 65.6354 19.1146 65.4062 18.7188C65.1979 18.3229 65.0521 17.8542 64.9688 17.3125C64.8854 16.7708 64.7917 16.1875 64.6875 15.5625L63.9375 16ZM67.9688 11.1562C67.9688 11.1146 67.9271 11.125 67.8438 11.1875C67.7812 11.2292 67.6979 11.2917 67.5938 11.375C67.5104 11.4583 67.4479 11.5417 67.4062 11.625C67.3646 11.6875 67.3646 11.7188 67.4062 11.7188C67.5104 11.7396 67.6354 11.6771 67.7812 11.5312C67.9271 11.3854 67.9896 11.2604 67.9688 11.1562Z" fill="#9E4523"/>
<path d="M100.938 14.2188C99.5208 15.3438 98.1146 16.3958 96.7188 17.375C95.3229 18.3542 93.8229 19.2188 92.2188 19.9688C92.0521 19.9271 91.8958 19.9167 91.75 19.9375C91.6042 19.9583 91.4583 19.9896 91.3125 20.0312C91.1875 20.0938 91.0417 20.1458 90.875 20.1875C90.7292 20.2292 90.5833 20.25 90.4375 20.25C90.0208 20.25 89.6146 20.1667 89.2188 20C88.8438 19.8333 88.5104 19.6146 88.2188 19.3438C87.9271 19.0521 87.6979 18.7188 87.5312 18.3438C87.3646 17.9688 87.2812 17.5729 87.2812 17.1562C87.2812 15.9062 87.5417 14.6979 88.0625 13.5312C88.6042 12.3438 89.2604 11.2188 90.0312 10.1562C90.8229 9.07292 91.6875 8.05208 92.625 7.09375C93.5625 6.11458 94.4271 5.21875 95.2188 4.40625L94.375 3.84375L94.6562 3.59375C95.1146 3.61458 95.5312 3.57292 95.9062 3.46875C96.2812 3.34375 96.6354 3.20833 96.9688 3.0625C97.3021 2.91667 97.6354 2.78125 97.9688 2.65625C98.3229 2.53125 98.7083 2.46875 99.125 2.46875C99.25 2.46875 99.375 2.46875 99.5 2.46875C99.625 2.46875 99.7292 2.48958 99.8125 2.53125C99.9167 2.55208 99.9896 2.60417 100.031 2.6875C100.094 2.77083 100.125 2.88542 100.125 3.03125C100.125 3.09375 99.9583 3.25 99.625 3.5C99.2917 3.72917 98.8438 4.04167 98.2812 4.4375C97.7396 4.8125 97.1146 5.26042 96.4062 5.78125C95.6979 6.30208 94.9688 6.88542 94.2188 7.53125C93.4896 8.17708 92.7708 8.875 92.0625 9.625C91.375 10.3542 90.75 11.125 90.1875 11.9375C89.625 12.7292 89.1771 13.5625 88.8438 14.4375C88.5104 15.3125 88.3438 16.1979 88.3438 17.0938C88.3438 17.4479 88.4167 17.7396 88.5625 17.9688C88.7083 18.1771 88.8854 18.3542 89.0938 18.5C89.3229 18.6458 89.5729 18.75 89.8438 18.8125C90.1354 18.8542 90.4167 18.875 90.6875 18.875C91.6042 18.875 92.5625 18.6354 93.5625 18.1562C94.5625 17.6771 95.5312 17.0938 96.4688 16.4062C97.4062 15.7188 98.2812 14.9792 99.0938 14.1875C99.9271 13.3958 100.635 12.6771 101.219 12.0312C101.344 11.9062 101.417 11.7812 101.438 11.6562C101.479 11.5312 101.5 11.3854 101.5 11.2188C101.5 11.1771 101.49 11.125 101.469 11.0625C101.469 11 101.469 10.9688 101.469 10.9688C100.844 11.0938 100.26 11.2396 99.7188 11.4062C99.1771 11.5521 98.6354 11.7188 98.0938 11.9062C97.5729 12.0729 97.0521 12.2604 96.5312 12.4688C96.0312 12.6562 95.5 12.875 94.9375 13.125C94.9167 13.125 94.8958 13.125 94.875 13.125C94.875 13.1458 94.8438 13.1562 94.7812 13.1562C94.6146 13.1562 94.5 13.0938 94.4375 12.9688C94.375 12.8438 94.3438 12.7188 94.3438 12.5938C94.3438 12.3646 94.5104 12.1354 94.8438 11.9062C95.1979 11.6562 95.6042 11.4375 96.0625 11.25C96.5208 11.0417 96.9792 10.8646 97.4375 10.7188C97.8958 10.5729 98.2396 10.4688 98.4688 10.4062C98.5312 10.3854 98.7083 10.3333 99 10.25C99.3125 10.1667 99.6354 10.0833 99.9688 10C100.302 9.89583 100.615 9.8125 100.906 9.75C101.198 9.66667 101.385 9.61458 101.469 9.59375C101.635 9.55208 101.781 9.48958 101.906 9.40625C102.031 9.30208 102.156 9.20833 102.281 9.125C102.406 9.02083 102.531 8.9375 102.656 8.875C102.781 8.79167 102.938 8.75 103.125 8.75C103.229 8.75 103.323 8.76042 103.406 8.78125C103.51 8.80208 103.594 8.88542 103.656 9.03125H108.562C108.583 9.03125 108.635 9.04167 108.719 9.0625C108.802 9.08333 108.885 9.11458 108.969 9.15625C109.073 9.17708 109.156 9.20833 109.219 9.25C109.281 9.27083 109.333 9.28125 109.375 9.28125C109.375 9.30208 109.385 9.32292 109.406 9.34375C109.406 9.36458 109.406 9.38542 109.406 9.40625C109.406 9.40625 109.406 9.41667 109.406 9.4375C109.406 9.45833 109.406 9.47917 109.406 9.5C109.406 9.5 109.406 9.51042 109.406 9.53125C109.385 9.55208 109.375 9.57292 109.375 9.59375C109.354 9.63542 109.312 9.6875 109.25 9.75C109.188 9.8125 109.146 9.84375 109.125 9.84375C108.958 9.84375 108.677 9.86458 108.281 9.90625C107.906 9.92708 107.5 9.95833 107.062 10C106.625 10.0208 106.208 10.0417 105.812 10.0625C105.438 10.0833 105.177 10.1042 105.031 10.125C104.573 10.1875 104.219 10.2812 103.969 10.4062C103.719 10.5312 103.521 10.8021 103.375 11.2188C103.146 11.9896 102.969 12.7083 102.844 13.375C102.719 14.0208 102.625 14.6562 102.562 15.2812C102.521 15.9062 102.5 16.5521 102.5 17.2188C102.5 17.8854 102.5 18.6146 102.5 19.4062C102.5 19.5312 102.5 19.7812 102.5 20.1562C102.5 20.5312 102.5 20.9167 102.5 21.3125C102.521 21.7292 102.531 22.1146 102.531 22.4688C102.552 22.8229 102.562 23.0729 102.562 23.2188C102.583 23.3438 102.635 23.5625 102.719 23.875C102.802 24.1875 102.885 24.5104 102.969 24.8438C103.073 25.1979 103.156 25.5312 103.219 25.8438C103.281 26.1562 103.333 26.375 103.375 26.5C103.396 26.5417 103.406 26.6458 103.406 26.8125C103.427 27 103.438 27.125 103.438 27.1875C103.104 27.1875 102.812 27.0625 102.562 26.8125C102.333 26.5625 102.135 26.2396 101.969 25.8438C101.802 25.4479 101.667 25.0104 101.562 24.5312C101.479 24.0521 101.406 23.5833 101.344 23.125C101.302 22.6667 101.271 22.25 101.25 21.875C101.229 21.5 101.219 21.2188 101.219 21.0312C101.198 20.7812 101.177 20.3542 101.156 19.75C101.156 19.125 101.156 18.4688 101.156 17.7812C101.156 17.0729 101.156 16.4167 101.156 15.8125C101.177 15.1875 101.198 14.75 101.219 14.5L100.938 14.2188Z" fill="#9E4523"/>
<path d="M107 18.8438C107 18.7812 107 18.6771 107 18.5312C107 18.3646 106.99 18.1979 106.969 18.0312C106.969 17.8438 106.969 17.6771 106.969 17.5312C106.969 17.3646 106.969 17.2396 106.969 17.1562C106.969 16.5729 107.01 15.9479 107.094 15.2812C107.177 14.6146 107.302 13.9688 107.469 13.3438C107.635 12.6979 107.854 12.0833 108.125 11.5C108.417 10.8958 108.771 10.375 109.188 9.9375C109.625 9.47917 110.125 9.11458 110.688 8.84375C111.25 8.57292 111.896 8.4375 112.625 8.4375C113.104 8.4375 113.469 8.58333 113.719 8.875C113.969 9.14583 114.135 9.48958 114.219 9.90625C114.323 10.3229 114.375 10.7604 114.375 11.2188C114.396 11.6771 114.406 12.0833 114.406 12.4375C114.406 13.25 114.323 14.1042 114.156 15C113.99 15.875 113.719 16.6771 113.344 17.4062C112.969 18.1354 112.448 18.7396 111.781 19.2188C111.135 19.6979 110.323 19.9375 109.344 19.9375C109.052 19.9375 108.802 19.9271 108.594 19.9062C108.385 19.8854 108.198 19.8333 108.031 19.75C107.865 19.6458 107.698 19.5312 107.531 19.4062C107.365 19.2604 107.188 19.0729 107 18.8438ZM108.094 18.2812C108.281 18.4688 108.5 18.5625 108.75 18.5625C109 18.5625 109.24 18.5625 109.469 18.5625C110.26 18.5625 110.906 18.3646 111.406 17.9688C111.906 17.5521 112.292 17.0417 112.562 16.4375C112.854 15.8333 113.052 15.1771 113.156 14.4688C113.281 13.7396 113.344 13.0625 113.344 12.4375C113.344 12.1458 113.344 11.8333 113.344 11.5C113.365 11.1458 113.333 10.8229 113.25 10.5312C113.188 10.2188 113.062 9.96875 112.875 9.78125C112.688 9.57292 112.406 9.46875 112.031 9.46875C112.031 9.80208 111.99 10.0521 111.906 10.2188C111.823 10.3854 111.708 10.5 111.562 10.5625C111.438 10.625 111.281 10.6667 111.094 10.6875C110.927 10.6875 110.74 10.7188 110.531 10.7812C110.344 10.8438 110.156 10.9375 109.969 11.0625C109.781 11.1875 109.615 11.4062 109.469 11.7188C109.135 12.6562 108.812 13.5625 108.5 14.4375C108.208 15.2917 108.062 16.1979 108.062 17.1562C108.062 17.2188 108.062 17.3021 108.062 17.4062C108.062 17.4896 108.062 17.5938 108.062 17.7188C108.083 17.8438 108.094 17.9583 108.094 18.0625C108.094 18.1458 108.094 18.2188 108.094 18.2812ZM111.031 5.03125C110.906 5.15625 110.781 5.3125 110.656 5.5C110.531 5.6875 110.385 5.85417 110.219 6C110.073 6.14583 109.917 6.23958 109.75 6.28125C109.583 6.30208 109.417 6.20833 109.25 6L110.375 4.0625C110.479 3.75 110.646 3.44792 110.875 3.15625C111.125 2.84375 111.354 2.58333 111.562 2.375C111.771 2.08333 111.99 2.09375 112.219 2.40625C112.385 2.59375 112.438 2.8125 112.375 3.0625C112.312 3.3125 112.198 3.5625 112.031 3.8125C111.865 4.0625 111.677 4.30208 111.469 4.53125C111.281 4.73958 111.135 4.90625 111.031 5.03125Z" fill="#9E4523"/>
<path d="M116 16C115.854 16.0833 115.74 16.1042 115.656 16.0625C115.573 16.0208 115.51 15.9583 115.469 15.875C115.448 15.7917 115.427 15.6979 115.406 15.5938C115.406 15.4688 115.406 15.3854 115.406 15.3438C115.406 14.9271 115.458 14.6771 115.562 14.5938C115.667 14.4896 115.802 14.4271 115.969 14.4062C116.135 14.3646 116.312 14.3125 116.5 14.25C116.688 14.1875 116.865 13.9896 117.031 13.6562C117.281 13.1354 117.5 12.5938 117.688 12.0312C117.896 11.4479 118.146 10.9062 118.438 10.4062C118.729 9.90625 119.094 9.5 119.531 9.1875C119.99 8.875 120.615 8.71875 121.406 8.71875C121.531 8.71875 121.667 8.72917 121.812 8.75C121.979 8.77083 122.125 8.8125 122.25 8.875C122.396 8.91667 122.51 9 122.594 9.125C122.698 9.22917 122.75 9.375 122.75 9.5625C122.75 10 122.635 10.3958 122.406 10.75C122.198 11.0833 121.927 11.3958 121.594 11.6875C121.281 11.9583 120.938 12.2188 120.562 12.4688C120.188 12.7188 119.844 12.9583 119.531 13.1875C119.219 13.4167 118.948 13.6562 118.719 13.9062C118.51 14.1562 118.406 14.4271 118.406 14.7188V17.7188C118.406 17.9479 118.49 18.1354 118.656 18.2812C118.844 18.4062 119.052 18.5104 119.281 18.5938C119.51 18.6771 119.75 18.7396 120 18.7812C120.25 18.8229 120.438 18.8438 120.562 18.8438C121.062 18.8438 121.562 18.7604 122.062 18.5938C122.562 18.4062 123.042 18.1771 123.5 17.9062C123.979 17.6354 124.427 17.3438 124.844 17.0312C125.26 16.6979 125.656 16.3854 126.031 16.0938C126.156 15.9896 126.26 15.8854 126.344 15.7812C126.448 15.6562 126.542 15.5417 126.625 15.4375C126.729 15.3333 126.833 15.25 126.938 15.1875C127.062 15.1042 127.219 15.0417 127.406 15C127.406 15.0208 127.406 15.0625 127.406 15.125C127.406 15.1875 127.406 15.2396 127.406 15.2812C127.406 15.4479 127.385 15.5938 127.344 15.7188C127.323 15.8438 127.25 15.9688 127.125 16.0938C126.667 16.6146 126.177 17.1042 125.656 17.5625C125.135 18.0208 124.583 18.4271 124 18.7812C123.417 19.1354 122.802 19.4167 122.156 19.625C121.51 19.8333 120.823 19.9375 120.094 19.9375C119.365 19.9375 118.802 19.8333 118.406 19.625C118.01 19.4167 117.698 19.1146 117.469 18.7188C117.26 18.3229 117.115 17.8542 117.031 17.3125C116.948 16.7708 116.854 16.1875 116.75 15.5625L116 16ZM120.031 11.1562C120.031 11.1146 119.99 11.125 119.906 11.1875C119.844 11.2292 119.76 11.2917 119.656 11.375C119.573 11.4583 119.51 11.5417 119.469 11.625C119.427 11.6875 119.427 11.7188 119.469 11.7188C119.573 11.7396 119.698 11.6771 119.844 11.5312C119.99 11.3854 120.052 11.2604 120.031 11.1562Z" fill="#9E4523"/>
<path d="M126.906 14.5938C126.906 14.5521 126.906 14.4896 126.906 14.4062C126.906 14.3229 126.906 14.2292 126.906 14.125C126.927 14.0208 126.938 13.9271 126.938 13.8438C126.938 13.7396 126.938 13.6771 126.938 13.6562C126.958 13.5938 127.031 13.5208 127.156 13.4375C127.302 13.3542 127.406 13.3229 127.469 13.3438C127.594 13.3854 127.708 13.5312 127.812 13.7812C127.917 14.0312 128.021 14.3333 128.125 14.6875C128.229 15.0417 128.344 15.4375 128.469 15.875C128.615 16.2917 128.792 16.6875 129 17.0625C129.229 17.4167 129.5 17.7396 129.812 18.0312C130.146 18.3021 130.542 18.4792 131 18.5625C131.146 18.5833 131.26 18.5833 131.344 18.5625C131.427 18.5208 131.479 18.4688 131.5 18.4062C131.542 18.3229 131.562 18.2396 131.562 18.1562C131.562 18.0521 131.562 17.9688 131.562 17.9062C131.542 17.5312 131.396 17.1458 131.125 16.75C130.854 16.3333 130.531 15.8958 130.156 15.4375C129.781 14.9583 129.406 14.4583 129.031 13.9375C128.656 13.3958 128.344 12.8333 128.094 12.25C127.844 11.6458 127.688 11.0104 127.625 10.3438C127.562 9.65625 127.688 8.92708 128 8.15625C128 7.96875 128.094 7.71875 128.281 7.40625C128.49 7.09375 128.729 6.80208 129 6.53125C129.292 6.23958 129.594 5.98958 129.906 5.78125C130.219 5.57292 130.49 5.46875 130.719 5.46875C131.052 5.46875 131.365 5.53125 131.656 5.65625C131.969 5.78125 132.208 5.98958 132.375 6.28125C132.583 6.55208 132.823 6.91667 133.094 7.375C133.385 7.8125 133.635 8.25 133.844 8.6875C134.073 9.125 134.219 9.52083 134.281 9.875C134.344 10.2292 134.25 10.4375 134 10.5C133.708 10.5 133.458 10.4167 133.25 10.25C133.062 10.0833 132.906 9.875 132.781 9.625C132.656 9.375 132.542 9.10417 132.438 8.8125C132.333 8.5 132.219 8.21875 132.094 7.96875C131.969 7.71875 131.823 7.51042 131.656 7.34375C131.49 7.15625 131.271 7.0625 131 7.0625C130.625 7.0625 130.292 7.17708 130 7.40625C129.729 7.63542 129.5 7.91667 129.312 8.25C129.146 8.58333 129.021 8.94792 128.938 9.34375C128.875 9.71875 128.844 10.0521 128.844 10.3438C128.844 10.8646 128.938 11.3542 129.125 11.8125C129.333 12.25 129.583 12.6771 129.875 13.0938C130.188 13.4896 130.521 13.8854 130.875 14.2812C131.25 14.6771 131.583 15.0833 131.875 15.5C132.188 15.8958 132.448 16.3125 132.656 16.75C132.865 17.1875 132.969 17.6562 132.969 18.1562C132.969 18.3646 132.917 18.5729 132.812 18.7812C132.729 18.9688 132.604 19.1562 132.438 19.3438C132.292 19.5104 132.115 19.6458 131.906 19.75C131.698 19.8542 131.49 19.9062 131.281 19.9062C130.698 19.9062 130.146 19.7292 129.625 19.375C129.104 19.0208 128.635 18.5729 128.219 18.0312C127.823 17.4896 127.5 16.9167 127.25 16.3125C127.021 15.6875 126.906 15.1146 126.906 14.5938Z" fill="#9E4523"/>
</svg>
